<?xml version="1.0" encoding="iso-8859-1"?>
<!-- Generator: Adobe Illustrator 19.0.0, SVG Export Plug-In . SVG Version: 6.00 Build 0)  -->
<svg version="1.1" id="Capa_1" xmlns="http://www.w3.org/2000/svg" xmlns:xlink="http://www.w3.org/1999/xlink" x="0px" y="0px"
	 viewBox="0 0 511.999 511.999" style="enable-background:new 0 0 511.999 511.999;" xml:space="preserve">
<g>
	<g>
		<path d="M239.12,1.187H27.837C12.488,1.188,0,13.675,0,29.024v91.334c0,4.142,3.358,7.5,7.5,7.5s7.5-3.358,7.5-7.5V29.024
			c0-7.078,5.759-12.837,12.837-12.837H239.12c7.078,0,12.837,5.759,12.837,12.837v137.376H15v-15.424c0-4.142-3.358-7.5-7.5-7.5
			s-7.5,3.358-7.5,7.5v46.32c0,9.097,7.401,16.499,16.499,16.499H91.43c-2.901,7.76-7.854,16.238-16.343,22.681
			c-4.044,3.069-5.673,8.365-4.054,13.178c1.621,4.817,6.124,8.053,11.206,8.053h20.786c4.142,0,7.5-3.358,7.5-7.5
			c0-4.142-3.358-7.5-7.5-7.5H90.667c8.966-9.084,13.881-19.783,16.574-28.912h52.475c2.693,9.13,7.608,19.828,16.574,28.912
			h-42.648c-4.142,0-7.5,3.358-7.5,7.5c0,4.142,3.358,7.5,7.5,7.5h51.077c5.082,0,9.585-3.237,11.206-8.054
			c1.619-4.813-0.01-10.109-4.055-13.177c-8.489-6.442-13.442-14.92-16.343-22.681h74.931c9.097,0,16.499-7.401,16.499-16.499
			V29.024C266.957,13.675,254.469,1.187,239.12,1.187z M251.957,197.295c0,0.826-0.672,1.499-1.499,1.499H165.48
			c-0.008,0-0.015,0-0.023,0H16.499c-0.827,0-1.499-0.672-1.499-1.499v-15.896h236.957V197.295z"/>
	</g>
</g>
<g>
	<g>
		<path d="M96.344,87.403c-4.142,0-7.5,3.358-7.5,7.5v1.616c0,4.142,3.358,7.5,7.5,7.5c4.142,0,7.5-3.358,7.5-7.5v-1.616
			C103.844,90.761,100.486,87.403,96.344,87.403z"/>
	</g>
</g>
<g>
	<g>
		<path d="M133.479,87.403c-4.142,0-7.5,3.358-7.5,7.5v1.616c0,4.142,3.358,7.5,7.5,7.5c4.142,0,7.5-3.358,7.5-7.5v-1.616
			C140.979,90.761,137.621,87.403,133.479,87.403z"/>
	</g>
</g>
<g>
	<g>
		<path d="M170.613,87.403c-4.142,0-7.5,3.358-7.5,7.5v1.616c0,4.142,3.358,7.5,7.5,7.5c4.142,0,7.5-3.358,7.5-7.5v-1.616
			C178.113,90.761,174.755,87.403,170.613,87.403z"/>
	</g>
</g>
<g>
	<g>
		<path d="M484.163,254.292h-31.854c-4.143,0-7.5,3.358-7.5,7.5c0,4.142,3.357,7.5,7.5,7.5h31.854
			c7.078,0,12.837,5.759,12.837,12.837v137.376H260.043V282.128c0-7.078,5.759-12.837,12.837-12.837h148.812
			c4.143,0,7.5-3.358,7.5-7.5c0-4.142-3.357-7.5-7.5-7.5H272.88c-15.35,0-27.837,12.488-27.837,27.837v168.272
			c0,9.097,7.401,16.499,16.498,16.499h74.928c-2.854,7.605-7.793,16.196-16.34,22.681c-4.044,3.069-5.673,8.365-4.054,13.178
			c1.621,4.817,6.124,8.054,11.206,8.054h102.48c5.081,0,9.585-3.237,11.206-8.054c1.619-4.813-0.01-10.108-4.054-13.178
			c-8.49-6.443-13.444-14.921-16.344-22.681h74.932c9.097,0,16.498-7.401,16.498-16.499V282.128
			C512,266.779,499.513,254.292,484.163,254.292z M421.333,495.813h-85.632c9.079-9.216,13.955-20.064,16.577-28.913h52.481
			C407.452,476.029,412.367,486.727,421.333,495.813z M497,450.401c0,0.826-0.672,1.499-1.498,1.499H261.541
			c-0.826,0-1.498-0.672-1.498-1.499v-15.896H497V450.401z"/>
	</g>
</g>
<g>
	<g>
		<path d="M341.387,340.508c-4.143,0-7.5,3.358-7.5,7.5v1.616c0,4.142,3.357,7.5,7.5,7.5s7.5-3.358,7.5-7.5v-1.616
			C348.887,343.865,345.53,340.508,341.387,340.508z"/>
	</g>
</g>
<g>
	<g>
		<path d="M378.521,340.508c-4.143,0-7.5,3.358-7.5,7.5v1.616c0,4.142,3.357,7.5,7.5,7.5s7.5-3.358,7.5-7.5v-1.616
			C386.021,343.865,382.664,340.508,378.521,340.508z"/>
	</g>
</g>
<g>
	<g>
		<path d="M415.656,340.508c-4.143,0-7.5,3.358-7.5,7.5v1.616c0,4.142,3.357,7.5,7.5,7.5s7.5-3.358,7.5-7.5v-1.616
			C423.156,343.865,419.799,340.508,415.656,340.508z"/>
	</g>
</g>
<g>
	<g>
		<path d="M306.138,103.601H293.9c-4.143,0-7.5,3.358-7.5,7.5c0,4.142,3.358,7.5,7.5,7.5h12.238c4.143,0,7.5-3.358,7.5-7.5
			C313.638,106.959,310.281,103.601,306.138,103.601z"/>
	</g>
</g>
<g>
	<g>
		<path d="M342.33,103.601h-12.238c-4.143,0-7.5,3.358-7.5,7.5c0,4.142,3.357,7.5,7.5,7.5h12.238c4.143,0,7.5-3.358,7.5-7.5
			C349.83,106.959,346.473,103.601,342.33,103.601z"/>
	</g>
</g>
<g>
	<g>
		<path d="M378.521,103.601h-12.238c-4.143,0-7.5,3.358-7.5,7.5c0,4.142,3.358,7.5,7.5,7.5h12.238c4.143,0,7.5-3.358,7.5-7.5
			C386.021,106.959,382.664,103.601,378.521,103.601z"/>
	</g>
</g>
<g>
	<g>
		<path d="M378.521,126.842c-4.143,0-7.5,3.358-7.5,7.5v12.238c0,4.142,3.357,7.5,7.5,7.5s7.5-3.358,7.5-7.5v-12.238
			C386.021,130.2,382.664,126.842,378.521,126.842z"/>
	</g>
</g>
<g>
	<g>
		<path d="M378.521,164.656c-4.143,0-7.5,3.358-7.5,7.5v12.238c0,4.142,3.357,7.5,7.5,7.5s7.5-3.358,7.5-7.5v-12.238
			C386.021,168.014,382.664,164.656,378.521,164.656z"/>
	</g>
</g>
<g>
	<g>
		<path d="M378.521,202.469c-4.143,0-7.5,3.358-7.5,7.5v12.238c0,4.142,3.357,7.5,7.5,7.5s7.5-3.358,7.5-7.5v-12.238
			C386.021,205.828,382.664,202.469,378.521,202.469z"/>
	</g>
</g>
<g>
	<g>
		<path d="M220.516,396.062h-12.238c-4.142,0-7.5,3.358-7.5,7.5c0,4.142,3.358,7.5,7.5,7.5h12.238c4.142,0,7.5-3.358,7.5-7.5
			C228.016,399.419,224.658,396.062,220.516,396.062z"/>
	</g>
</g>
<g>
	<g>
		<path d="M184.324,396.062h-12.238c-4.142,0-7.5,3.358-7.5,7.5c0,4.142,3.358,7.5,7.5,7.5h12.238c4.142,0,7.5-3.358,7.5-7.5
			C191.824,399.419,188.466,396.062,184.324,396.062z"/>
	</g>
</g>
<g>
	<g>
		<path d="M148.133,396.062h-12.238c-4.142,0-7.5,3.358-7.5,7.5c0,4.142,3.358,7.5,7.5,7.5h12.238c4.142,0,7.5-3.358,7.5-7.5
			C155.633,399.419,152.275,396.062,148.133,396.062z"/>
	</g>
</g>
<g>
	<g>
		<path d="M135.895,360.583c-4.142,0-7.5,3.358-7.5,7.5v12.238c0,4.142,3.358,7.5,7.5,7.5c4.142,0,7.5-3.358,7.5-7.5v-12.238
			C143.395,363.94,140.037,360.583,135.895,360.583z"/>
	</g>
</g>
<g>
	<g>
		<path d="M135.895,322.768c-4.142,0-7.5,3.358-7.5,7.5v12.238c0,4.142,3.358,7.5,7.5,7.5c4.142,0,7.5-3.358,7.5-7.5v-12.238
			C143.395,326.125,140.037,322.768,135.895,322.768z"/>
	</g>
</g>
<g>
	<g>
		<path d="M135.895,284.953c-4.142,0-7.5,3.358-7.5,7.5v12.238c0,4.142,3.358,7.5,7.5,7.5c4.142,0,7.5-3.358,7.5-7.5v-12.238
			C143.395,288.311,140.037,284.953,135.895,284.953z"/>
	</g>
</g>
<g>
</g>
<g>
</g>
<g>
</g>
<g>
</g>
<g>
</g>
<g>
</g>
<g>
</g>
<g>
</g>
<g>
</g>
<g>
</g>
<g>
</g>
<g>
</g>
<g>
</g>
<g>
</g>
<g>
</g>
</svg>
