<?xml version="1.0" encoding="iso-8859-1"?>
<!-- Generator: Adobe Illustrator 19.0.0, SVG Export Plug-In . SVG Version: 6.00 Build 0)  -->
<svg version="1.1" id="Capa_1" xmlns="http://www.w3.org/2000/svg" xmlns:xlink="http://www.w3.org/1999/xlink" x="0px" y="0px"
	 viewBox="0 0 512 512" style="enable-background:new 0 0 512 512;" xml:space="preserve">
<g>
	<g>
		<path d="M331.28,279.289H146.976c-4.142,0-7.5,3.357-7.5,7.5s3.358,7.5,7.5,7.5H323.78v140.955H184.656
			c-1.989,0-3.897,0.79-5.303,2.196l-51.508,51.508L76.336,437.44c-1.406-1.406-3.314-2.196-5.303-2.196H46.367V294.289h69.991
			c4.142,0,7.5-3.357,7.5-7.5s-3.358-7.5-7.5-7.5H38.867c-4.142,0-7.5,3.357-7.5,7.5v155.955c0,4.143,3.358,7.5,7.5,7.5h29.059
			l54.615,54.614c1.464,1.464,3.384,2.196,5.303,2.196s3.839-0.732,5.303-2.196l54.615-54.614H331.28c4.142,0,7.5-3.357,7.5-7.5
			V286.789C338.78,282.646,335.422,279.289,331.28,279.289z"/>
	</g>
</g>
<g>
	<g>
		<path d="M473.309,139.477c-4.142,0-7.5,3.357-7.5,7.5v101.122h-32.602c-1.989,0-3.897,0.79-5.303,2.196L390.598,287.6
			l-37.306-37.306c-1.406-1.406-3.314-2.196-5.303-2.196h-94.742c-0.903-0.385-1.896-0.598-2.939-0.598
			c-4.134,0-7.487,3.345-7.5,7.476c0-0.063,0.001-0.119,0.001-0.127c-0.01,0.151-0.02,0.303-0.025,0.457
			c-0.08,2.038,0.674,4.021,2.088,5.491c1.414,1.47,3.366,2.301,5.406,2.301h94.604l40.412,40.412
			c1.464,1.464,3.384,2.196,5.303,2.196s3.839-0.732,5.303-2.196l40.412-40.412h36.996c4.142,0,7.5-3.357,7.5-7.5V146.977
			C480.809,142.833,477.451,139.477,473.309,139.477z"/>
	</g>
</g>
<g>
	<g>
		<path d="M473.309,35.891H38.867c-4.142,0-7.5,3.357-7.5,7.5v212.208c0,4.143,3.358,7.5,7.5,7.5h180.856
			c2.046,0,4.004-0.836,5.419-2.314c1.415-1.479,2.164-3.472,2.074-5.517c-0.006-0.133-0.014-0.266-0.027-0.444
			c-0.094-4.06-3.415-7.322-7.498-7.322c-1.043,0-2.036,0.213-2.939,0.598H46.367V50.891h419.442v65.468c0,4.143,3.358,7.5,7.5,7.5
			c4.142,0,7.5-3.357,7.5-7.5V43.391C480.809,39.247,477.451,35.891,473.309,35.891z"/>
	</g>
</g>
<g>
	<g>
		<path d="M504.5,4.945h-51.322c-4.142,0-7.5,3.357-7.5,7.5s3.358,7.5,7.5,7.5H497v57.666c0,4.143,3.358,7.5,7.5,7.5
			c4.142,0,7.5-3.357,7.5-7.5V12.445C512,8.303,508.642,4.945,504.5,4.945z"/>
	</g>
</g>
<g>
	<g>
		<path d="M38.867,468.907H15v-57.666c0-4.143-3.358-7.5-7.5-7.5s-7.5,3.357-7.5,7.5v65.166c0,4.143,3.358,7.5,7.5,7.5h31.367
			c4.142,0,7.5-3.357,7.5-7.5S43.009,468.907,38.867,468.907z"/>
	</g>
</g>
<g>
	<g>
		<path d="M106.421,103.582c-2.928-2.928-7.677-2.929-10.606,0.001l-10.92,10.921c-2.929,2.929-2.929,7.678,0,10.606
			c1.464,1.464,3.384,2.196,5.303,2.196s3.839-0.732,5.303-2.197l10.92-10.921C109.35,111.259,109.35,106.51,106.421,103.582z"/>
	</g>
</g>
<g>
	<g>
		<path d="M134.228,103.582c-2.929-2.928-7.678-2.929-10.606,0.001l-10.92,10.921c-2.929,2.929-2.929,7.678,0,10.606
			c1.464,1.464,3.384,2.196,5.303,2.196s3.839-0.732,5.303-2.197l10.92-10.921C137.157,111.26,137.156,106.511,134.228,103.582z"/>
	</g>
</g>
<g>
	<g>
		<path d="M180.408,177.57c-2.93-2.93-7.678-2.929-10.607-0.001l-10.921,10.92c-2.929,2.929-2.929,7.678,0,10.606
			c1.465,1.465,3.384,2.197,5.304,2.197c1.919,0,3.839-0.732,5.303-2.196l10.921-10.92
			C183.337,185.247,183.337,180.498,180.408,177.57z"/>
	</g>
</g>
<g>
	<g>
		<path d="M208.214,177.569c-2.929-2.929-7.678-2.928-10.607-0.001l-10.921,10.92c-2.929,2.929-2.929,7.678,0,10.606
			c1.465,1.465,3.384,2.197,5.304,2.197s3.839-0.732,5.303-2.196l10.921-10.92C211.143,185.246,211.143,180.497,208.214,177.569z"/>
	</g>
</g>
<g>
	<g>
		<path d="M146.554,127.581c-13.1,0-23.759,10.658-23.759,23.759s10.659,23.759,23.759,23.759c13.101,0,23.758-10.658,23.758-23.759
			S159.654,127.581,146.554,127.581z M146.554,160.099c-4.829,0-8.759-3.929-8.759-8.759s3.93-8.759,8.759-8.759
			c4.83,0,8.758,3.929,8.758,8.759S151.383,160.099,146.554,160.099z"/>
	</g>
</g>
<g>
	<g>
		<path d="M287.884,111.277h-26.809c-4.142,0-7.5,3.357-7.5,7.5s3.358,7.5,7.5,7.5h26.809c4.142,0,7.5-3.357,7.5-7.5
			S292.026,111.277,287.884,111.277z"/>
	</g>
</g>
<g>
	<g>
		<path d="M353.959,149.428h-92.884c-4.142,0-7.5,3.357-7.5,7.5s3.358,7.5,7.5,7.5h92.884c4.142,0,7.5-3.357,7.5-7.5
			S358.101,149.428,353.959,149.428z"/>
	</g>
</g>
<g>
	<g>
		<path d="M414.466,176.4H261.075c-4.142,0-7.5,3.357-7.5,7.5s3.358,7.5,7.5,7.5h153.391c4.142,0,7.5-3.357,7.5-7.5
			S418.608,176.4,414.466,176.4z"/>
	</g>
</g>
<g>
	<g>
		<path d="M414.466,149.428h-30.875c-4.142,0-7.5,3.357-7.5,7.5s3.358,7.5,7.5,7.5h30.875c4.142,0,7.5-3.357,7.5-7.5
			S418.608,149.428,414.466,149.428z"/>
	</g>
</g>
<g>
	<g>
		<path d="M279.606,321.927h-26.809c-4.142,0-7.5,3.357-7.5,7.5s3.358,7.5,7.5,7.5h26.809c4.142,0,7.5-3.357,7.5-7.5
			S283.748,321.927,279.606,321.927z"/>
	</g>
</g>
<g>
	<g>
		<path d="M279.606,360.076h-92.884c-4.142,0-7.5,3.358-7.5,7.5c0,4.143,3.358,7.5,7.5,7.5h92.884c4.142,0,7.5-3.357,7.5-7.5
			S283.748,360.076,279.606,360.076z"/>
	</g>
</g>
<g>
	<g>
		<path d="M279.606,387.05H126.215c-4.142,0-7.5,3.357-7.5,7.5s3.358,7.5,7.5,7.5h153.391c4.142,0,7.5-3.357,7.5-7.5
			S283.748,387.05,279.606,387.05z"/>
	</g>
</g>
<g>
	<g>
		<path d="M157.09,360.076h-30.875c-4.142,0-7.5,3.357-7.5,7.5s3.358,7.5,7.5,7.5h30.875c4.142,0,7.5-3.357,7.5-7.5
			S161.232,360.076,157.09,360.076z"/>
	</g>
</g>
<g>
</g>
<g>
</g>
<g>
</g>
<g>
</g>
<g>
</g>
<g>
</g>
<g>
</g>
<g>
</g>
<g>
</g>
<g>
</g>
<g>
</g>
<g>
</g>
<g>
</g>
<g>
</g>
<g>
</g>
</svg>
