<?xml version="1.0" encoding="iso-8859-1"?>
<!-- Generator: Adobe Illustrator 19.0.0, SVG Export Plug-In . SVG Version: 6.00 Build 0)  -->
<svg version="1.1" id="Capa_1" xmlns="http://www.w3.org/2000/svg" xmlns:xlink="http://www.w3.org/1999/xlink" x="0px" y="0px"
	 viewBox="0 0 512 512" style="enable-background:new 0 0 512 512;" xml:space="preserve">
<g>
	<g>
		<path d="M360.565,125.208c-3.466,0-6.757,0.758-9.724,2.108l-39.62-39.62c1.35-2.967,2.108-6.258,2.108-9.724
			c0-12.997-10.573-23.57-23.57-23.57s-23.57,10.573-23.57,23.57c0,4.48,1.257,8.672,3.436,12.242l-4.683,4.682
			c-20.536-45.021-65.971-76.39-118.597-76.39c-71.833,0-130.273,58.44-130.273,130.272c0,2.898,0.107,5.809,0.298,8.703
			C6.884,160.533,0,169.437,0,179.922c0,12.997,10.573,23.57,23.57,23.57c1.483,0.001,2.933-0.143,4.34-0.407
			c6.654,14.507,15.829,27.547,27.333,38.804c1.459,1.428,3.353,2.14,5.244,2.14c1.947,0,3.893-0.753,5.361-2.255
			c2.897-2.96,2.846-7.709-0.115-10.605c-10.473-10.249-18.771-22.16-24.696-35.437c3.791-4.184,6.104-9.731,6.104-15.809
			c0-3.777-0.898-7.346-2.484-10.514l45.828-45.828c3.167,1.585,6.737,2.483,10.514,2.483c3.545,0,6.907-0.792,9.926-2.199
			l50.4,50.4c0.14,0.14,0.287,0.267,0.435,0.393c-1.416,3.026-2.212,6.399-2.212,9.955c0,12.997,10.573,23.57,23.57,23.57
			s23.57-10.573,23.57-23.57c0-3.039-0.584-5.943-1.636-8.613l53.532-53.532c1.981,8.454,3.033,17.261,3.033,26.311
			c0,63.562-51.711,115.273-115.272,115.273c-20.208,0-40.088-5.304-57.492-15.338c-3.589-2.069-8.176-0.839-10.243,2.751
			c-2.069,3.589-0.838,8.175,2.751,10.243c19.68,11.347,42.15,17.344,64.984,17.344c71.832,0,130.272-58.44,130.272-130.273
			c0-13.407-2.038-26.346-5.816-38.527l10.346-10.346c2.67,1.052,5.573,1.636,8.612,1.636c4.066,0,7.896-1.035,11.238-2.856
			l38.854,38.854c-1.821,3.342-2.856,7.171-2.856,11.238c0,12.997,10.573,23.57,23.57,23.57s23.57-10.573,23.57-23.57
			S373.562,125.208,360.565,125.208z M23.57,188.492c-4.725,0-8.57-3.844-8.57-8.57s3.845-8.57,8.57-8.57
			c4.725,0,8.57,3.845,8.57,8.57C32.14,184.647,28.295,188.492,23.57,188.492z M100.999,111.064c-4.725,0-8.57-3.845-8.57-8.57
			c0-4.726,3.845-8.569,8.57-8.569c4.725,0,8.569,3.844,8.569,8.569C109.568,107.219,105.724,111.064,100.999,111.064z
			 M183.117,193.183c-4.726,0-8.57-3.845-8.57-8.57c0-4.725,3.845-8.57,8.57-8.57c4.725,0,8.57,3.845,8.57,8.57
			C191.687,189.338,187.843,193.183,183.117,193.183z M195.359,164.477c-3.57-2.178-7.762-3.435-12.241-3.435
			c-3.993,0-7.755,1.001-11.054,2.761c-0.045-0.048-0.085-0.099-0.132-0.146l-50.119-50.12c1.756-3.297,2.756-7.055,2.756-11.044
			c0-12.996-10.573-23.569-23.569-23.569c-12.997,0-23.57,10.573-23.57,23.569c0,3.759,0.889,7.312,2.46,10.468l-45.851,45.851
			c-0.848-0.423-1.725-0.795-2.627-1.115c-0.226-2.959-0.341-5.947-0.341-8.919C31.07,85.217,82.782,33.506,146.344,33.506
			c48.577,0,90.229,30.204,107.17,72.817L195.359,164.477z M289.758,86.542c-4.725,0-8.57-3.845-8.57-8.57
			c0-4.725,3.844-8.57,8.57-8.57c4.726,0,8.57,3.845,8.57,8.57C298.328,82.697,294.483,86.542,289.758,86.542z M360.564,157.348
			c-4.725,0-8.57-3.845-8.57-8.57c0-4.725,3.845-8.57,8.57-8.57c4.726,0,8.57,3.845,8.57,8.57
			C369.134,153.503,365.289,157.348,360.564,157.348z"/>
	</g>
</g>
<g>
	<g>
		<path d="M504.5,478.494h-3.295V314.309c0-4.143-3.357-7.5-7.5-7.5s-7.5,3.357-7.5,7.5v164.185h-28.959V156.279h28.959v127.413
			c0,4.143,3.357,7.5,7.5,7.5s7.5-3.357,7.5-7.5V148.779c0-4.143-3.357-7.5-7.5-7.5h-43.959c-4.143,0-7.5,3.357-7.5,7.5v329.715
			H427.15V214.828c0-4.143-3.357-7.5-7.5-7.5h-43.958c-4.143,0-7.5,3.357-7.5,7.5v263.666h-15.096v-207.27
			c0-4.143-3.357-7.5-7.5-7.5h-43.959c-4.143,0-7.5,3.357-7.5,7.5v207.27h-15.096V325.751c0-4.143-3.357-7.5-7.5-7.5h-43.959
			c-4.143,0-7.5,3.357-7.5,7.5v152.742h-15.096V362.334c0-4.143-3.357-7.5-7.5-7.5h-43.959c-4.143,0-7.5,3.357-7.5,7.5v43.357
			c0,4.143,3.357,7.5,7.5,7.5s7.5-3.357,7.5-7.5v-35.857h28.959v108.659h-28.959v-42.185c0-4.143-3.357-7.5-7.5-7.5
			s-7.5,3.357-7.5,7.5v42.185h-15.096V362.334c0-4.143-3.357-7.5-7.5-7.5H79.475c-4.143,0-7.5,3.357-7.5,7.5v116.159H14.509
			c-4.143,0-7.5,3.357-7.5,7.5s3.357,7.5,7.5,7.5H504.5v0.001c4.143,0,7.5-3.357,7.5-7.5S508.643,478.494,504.5,478.494z
			 M115.933,478.493H86.975V369.834h28.958V478.493z M264.042,478.493h-28.959V333.251h28.959V478.493z M338.097,478.494h-28.959
			v-199.77h28.959V478.494z M412.15,478.494h-28.958V222.328h28.958V478.494z"/>
	</g>
</g>
<g>
	<g>
		<path d="M493.705,30.773c-4.143,0-7.5,3.357-7.5,7.5v1.649c0,4.143,3.358,7.5,7.5,7.5c4.143,0,7.5-3.357,7.5-7.5v-1.649
			C501.205,34.13,497.848,30.773,493.705,30.773z"/>
	</g>
</g>
<g>
	<g>
		<path d="M468.169,30.773c-4.143,0-7.5,3.357-7.5,7.5v1.649c0,4.143,3.357,7.5,7.5,7.5s7.5-3.357,7.5-7.5v-1.649
			C475.669,34.13,472.312,30.773,468.169,30.773z"/>
	</g>
</g>
<g>
	<g>
		<path d="M493.522,62.339h-25.353c-4.143,0-7.5,3.357-7.5,7.5s3.357,7.5,7.5,7.5h25.353c4.143,0,7.5-3.357,7.5-7.5
			S497.665,62.339,493.522,62.339z"/>
	</g>
</g>
<g>
	<g>
		<path d="M493.521,86.542h-67.605c-4.143,0-7.5,3.357-7.5,7.5s3.357,7.5,7.5,7.5h67.605c4.143,0,7.5-3.357,7.5-7.5
			S497.664,86.542,493.521,86.542z"/>
	</g>
</g>
<g>
</g>
<g>
</g>
<g>
</g>
<g>
</g>
<g>
</g>
<g>
</g>
<g>
</g>
<g>
</g>
<g>
</g>
<g>
</g>
<g>
</g>
<g>
</g>
<g>
</g>
<g>
</g>
<g>
</g>
</svg>
